#!OML:ASF G:\ViconDB\ViconDB\414\test\team2\shane.ASF
:FULLY-SPECIFIED
:DEGREES
226
root 1.11023 16.6835 8.76201 -8.42872 7.1418 -4.20134
lowerback 9.32776 -2.28867 -2.1507
upperback 3.24612 -3.15822 2.96412
thorax -1.5634 -1.60166 4.61277
lowerneck -14.1766 -2.00372 -9.52923
upperneck 16.4859 -2.5686 10.176
head 7.65593 -0.877612 4.6937
rclavicle 3.44891e-014 5.76476e-015
rhumerus -47.1923 -7.69301 -71.8889
rradius 22.6452
rwrist 46.8483
rhand -27.8853 -13.1333
rfingers 7.12502
rthumb -1.27514 -43.1092
lclavicle 3.44891e-014 5.76476e-015
lhumerus -15.945 -24.8476 96.2473
lradius 27.8272
lwrist -20.4589
lhand -41.107 6.70462
lfingers 7.12502
lthumb -14.0347 36.2108
rfemur -20.1016 -24.3465 21.3347
rtibia 28.4739
rfoot -22.5808 10.2986
rtoes -17.8629
lfemur 27.9864 5.22491 -10.3441
ltibia -6.67916e-014
lfoot -19.6718 -19.9817
ltoes -10.6619
227
root 1.09769 16.6693 8.97784 -8.35375 7.53043 -4.08975
lowerback 9.26031 -2.42585 -2.30005
upperback 3.17012 -3.35367 2.929
thorax -1.57982 -1.69843 4.67794
lowerneck -14.0537 -1.92386 -9.4895
upperneck 16.4415 -2.47106 10.1578
head 7.60799 -0.833271 4.68958
rclavicle -5.32246e-014 4.96962e-015
rhumerus -48.0669 -9.46152 -69.9867
rradius 22.2708
rwrist 48.4513
rhand -27.8179 -12.8706
rfingers 7.12502
rthumb -1.20999 -42.8469
lclavicle -5.32246e-014 4.96962e-015
lhumerus -15.7156 -25.2011 96.2725
lradius 28.6939
lwrist -20.3487
lhand -41.3159 6.35926
lfingers 7.12502
lthumb -14.236 35.8514
rfemur -21.2079 -27.0682 21.9111
rtibia 28.1176
rfoot -22.9159 13.6254
rtoes -16.4103
lfemur 28.5565 4.58667 -10.449
ltibia -8.5875e-014
lfoot -19.5681 -19.8713
ltoes -11.4109
228
root 1.08318 16.6509 9.20102 -8.19939 7.9097 -3.89256
lowerback 9.01217 -2.54411 -2.62824
upperback 3.09287 -3.53751 2.92269
thorax -1.48509 -1.79304 4.86209
lowerneck -13.9568 -1.89202 -9.51708
upperneck 16.4907 -2.42823 10.1369
head 7.60205 -0.818866 4.69244
rclavicle 4.4739e-014 -1.51076e-014
rhumerus -48.7606 -9.18321 -69.5134
rradius 22.0825
rwrist 47.9203
rhand -28.2283 -13.3908
rfingers 7.12502
rthumb -1.60645 -43.3645
lclavicle 4.4739e-014 -1.51076e-014
lhumerus -15.5295 -25.6957 96.3474
lradius 29.48
lwrist -20.3671
lhand -41.4767 6.64687
lfingers 7.12502
lthumb -14.3909 36.128
rfemur -22.3105 -29.6661 22.4429
rtibia 28.1111
rfoot -22.989 16.4518
rtoes -15.2368
lfemur 29.1483 3.97201 -10.6265
ltibia 3.18055e-015
lfoot -19.8407 -19.571
ltoes -12.478
229
root 1.06796 16.6309 9.42157 -8.12881 8.28495 -4.02118
lowerback 8.99716 -2.64948 -2.62365
upperback 2.94263 -3.67298 3.05251
thorax -1.6102 -1.85609 5.01238
lowerneck -13.8654 -1.97937 -9.71986
upperneck 16.582 -2.52128 10.1554
head 7.62841 -0.876719 4.72517
rclavicle -3.5657e-015 -3.97569e-016
rhumerus -49.6739 -10.3701 -67.7286
rradius 21.8224
rwrist 49.3855
rhand -28.3638 -13.3512
rfingers 7.12502
rthumb -1.73723 -43.3239
lclavicle -3.5657e-015 -3.97569e-016
lhumerus -15.3466 -25.7999 96.4758
lradius 30.1401
lwrist -20.6895
lhand -41.5467 6.17886
lfingers 7.12502
lthumb -14.4585 35.6552
rfemur -22.8634 -30.9192 23.0088
rtibia 28.2202
rfoot -22.9122 17.6023
rtoes -14.0195
lfemur 29.7165 3.2865 -10.4288
ltibia 3.81667e-014
lfoot -19.6195 -19.5843
ltoes -13.3537
230
root 1.04758 16.5844 9.64746 -8.08225 8.59001 -4.11643
lowerback 8.92077 -2.75371 -2.64973
upperback 2.81581 -3.81042 3.12976
thorax -1.67802 -1.92164 5.12054
lowerneck -13.8278 -1.83383 -9.54522
upperneck 16.7387 -2.33827 9.98276
head 7.64876 -0.794992 4.65964
rclavicle 4.53602e-014 -1.96797e-014
rhumerus -50.44 -11.4903 -66.1231
rradius 21.3467
rwrist 50.626
rhand -28.1729 -13.1769
rfingers 7.12502
rthumb -1.55292 -43.151
lclavicle 4.53602e-014 -1.96797e-014
lhumerus -15.3066 -26.2429 96.6412
lradius 30.8034
lwrist -20.5884
lhand -41.5535 6.36692
lfingers 7.12502
lthumb -14.465 35.8428
rfemur -22.8561 -30.8998 23.2237
rtibia 28.4893
rfoot -23.3639 17.1016
rtoes -14.8468
lfemur 30.3838 2.6592 -10.2335
ltibia 6.36111e-015
lfoot -19.5016 -19.5045
ltoes -14.5458
231
root 1.03001 16.5604 9.87433 -8.16216 9.02258 -4.30495
lowerback 9.00391 -2.88712 -2.54294
upperback 2.68305 -3.9752 3.23963
thorax -1.84347 -1.99796 5.2012
lowerneck -13.7016 -1.95062 -9.76232
upperneck 16.9269 -2.482 10.0204
head 7.70639 -0.877322 4.69824
rclavicle -2.96935e-014 -2.26615e-014
rhumerus -51.1892 -11.8422 -65.1183
rradius 21.1693
rwrist 50.8539
rhand -28.5118 -13.6119
rfingers 7.12502
rthumb -1.88018 -43.5833
lclavicle -2.96935e-014 -2.26615e-014
lhumerus -15.2643 -26.3583 96.8109
lradius 31.3635
lwrist -20.7019
lhand -41.5208 6.28908
lfingers 7.12502
lthumb -14.4335 35.7672
rfemur -22.1367 -29.5056 23.0038
rtibia 28.7589
rfoot -23.5005 15.3804
rtoes -15.0929
lfemur 31.0959 1.87781 -9.96997
ltibia -5.725e-014
lfoot -19.216 -19.4989
ltoes -15.5936
232
root 1.01353 16.5198 10.1076 -8.19801 9.26996 -4.52454
lowerback 8.90251 -2.94212 -2.30902
upperback 2.58888 -4.02319 3.3337
thorax -1.88986 -2.01931 5.16915
lowerneck -13.6304 -1.97578 -9.92071
upperneck 17.0673 -2.51573 10.117
head 7.74621 -0.896643 4.75801
rclavicle -2.96935e-014 -2.26615e-014
rhumerus -51.1892 -11.8422 -65.1183
rradius 21.1693
rwrist 50.8539
rhand -28.5118 -13.6119
rfingers 7.12502
rthumb -1.88018 -43.5833
lclavicle 7.32273e-014 -2.26615e-014
lhumerus -15.2766 -26.3604 97.0481
lradius 31.8879
lwrist -20.7275
lhand -41.4772 5.87723
lfingers 7.12502
lthumb -14.3915 35.3583
rfemur -21.2634 -27.994 22.9305
rtibia 29.2457
rfoot -23.5901 13.5876
rtoes -15.3429
lfemur 31.8431 1.24702 -9.58391
ltibia 9.54166e-014
lfoot -18.9414 -19.6542
ltoes -16.8771
233
root 0.994234 16.492 10.3438 -8.18184 9.63637 -4.68971
lowerback 8.76974 -3.04256 -2.22229
upperback 2.4424 -4.14466 3.41697
thorax -1.95586 -2.07643 5.2156
lowerneck -13.7427 -2.04752 -9.8282
upperneck 17.405 -2.61672 9.9643
head 7.8858 -0.950595 4.68792
rclavicle 9.11428e-014 -3.73715e-014
rhumerus -52.6791 -13.2874 -62.6119
rradius 20.7888
rwrist 52.5936
rhand -28.2905 -13.2578
rfingers 7.12502
rthumb -1.66651 -43.2311
lclavicle 9.11428e-014 -3.73715e-014
lhumerus -15.5391 -25.9783 97.2757
lradius 32.3225
lwrist -21.5631
lhand -41.4883 5.3891
lfingers 7.12502
lthumb -14.4022 34.8694
rfemur -20.4991 -26.9508 22.7833
rtibia 29.9329
rfoot -23.2309 12.6616
rtoes -15.397
lfemur 32.4687 0.541516 -9.32978
ltibia 1.90833e-014
lfoot -18.4814 -19.7651
ltoes -18.2237
234
root 0.977986 16.4709 10.5887 -8.29251 9.94922 -4.87257
lowerback 8.66272 -3.17809 -2.14336
upperback 2.32404 -4.31294 3.55526
thorax -1.99684 -2.15843 5.32878
lowerneck -13.6042 -1.93442 -9.96717
upperneck 17.6177 -2.45608 9.97364
head 7.91464 -0.886295 4.73723
rclavicle 9.11428e-014 -3.73715e-014
rhumerus -52.6791 -13.2874 -62.6119
rradius 20.7888
rwrist 52.5936
rhand -28.2905 -13.2578
rfingers 7.12502
rthumb -1.66651 -43.2311
lclavicle 5.82812e-014 -3.1408e-014
lhumerus -15.897 -25.5607 97.5489
lradius 32.9409
lwrist -21.5079
lhand -41.5259 5.51672
lfingers 7.12502
lthumb -14.4384 34.9945
rfemur -19.8434 -26.7553 22.8235
rtibia 30.8261
rfoot -23.1988 12.2539
rtoes -16.9306
lfemur 33.2656 -0.144955 -9.04164
ltibia 9.54166e-014
lfoot -18.0563 -19.8695
ltoes -19.8287
235
root 0.960382 16.4873 10.8458 -8.39085 10.2331 -5.02445
lowerback 8.42692 -3.24185 -1.97697
upperback 2.25317 -4.37981 3.64675
thorax -1.93837 -2.1926 5.32262
lowerneck -13.5917 -1.93105 -9.73833
upperneck 17.7712 -2.41806 9.50564
head 7.95173 -0.897423 4.54502
rclavicle -5.1802e-014 -4.77083e-015
rhumerus -54.0159 -13.1659 -61.5118
rradius 21.1077
rwrist 53.1539
rhand -27.483 -13.1892
rfingers 7.12502
rthumb -0.886547 -43.1671
lclavicle -5.1802e-014 -4.77083e-015
lhumerus -16.2728 -25.4303 97.8793
lradius 33.4646
lwrist -21.3358
lhand -41.3496 5.39744
lfingers 7.12502
lthumb -14.2685 34.8873
rfemur -19.8853 -28.3305 23.1201
rtibia 31.79
rfoot -21.7956 13.7475
rtoes -16.6497
lfemur 34.0442 -0.782119 -8.8206
ltibia -6.36111e-015
lfoot -17.422 -20.0088
ltoes -22.0492
236
root 0.951992 16.4932 11.102 -8.49175 10.3991 -5.36752
lowerback 8.15945 -3.32941 -1.5558
upperback 2.13436 -4.45674 3.75247
thorax -1.92983 -2.23002 5.1882
lowerneck -13.2198 -1.78475 -9.88698
upperneck 17.7541 -2.26075 9.73531
head 7.86509 -0.819399 4.66416
rclavicle -5.1802e-014 -4.77083e-015
rhumerus -54.0159 -13.1659 -61.5118
rradius 21.1077
rwrist 53.1539
rhand -27.483 -13.1892
rfingers 7.12502
rthumb -0.886547 -43.1671
lclavicle 4.28567e-014 -3.61788e-014
lhumerus -16.8017 -25.0341 98.1166
lradius 33.7657
lwrist -21.9449
lhand -41.3465 5.21998
lfingers 7.12502
lthumb -14.2655 34.71
rfemur -19.9263 -30.1333 23.5982
rtibia 32.6898
rfoot -19.3226 16.127
rtoes -11.5892
lfemur 34.7764 -1.34317 -8.36502
ltibia 4.77083e-014
lfoot -16.3466 -20.3573
ltoes -24.1524
